<svg width="601" height="515" viewBox="0 0 601 515" fill="none" xmlns="http://www.w3.org/2000/svg">
<g clip-path="url(#clip0_393_323)">
<path d="M311.536 432.535L329.137 427.35L324.001 445.001L329.137 462.602L311.536 457.466L293.885 462.602L299.07 445.001L293.885 427.35L311.536 432.535Z" fill="white" stroke="white" stroke-miterlimit="10"/>
</g>
<g clip-path="url(#clip1_393_323)">
<path d="M124.914 345.545L156.39 362.695L124.914 379.982L107.695 411.39L90.4765 379.982L59.0005 362.695L90.4765 345.545L107.695 314L124.914 345.545Z" fill="white" stroke="white" stroke-miterlimit="10"/>
</g>
<path d="M565.117 389.333C563.218 392.777 559.679 395.268 554.584 396.813C549.486 398.359 542.874 398.943 534.913 398.6C518.992 397.913 497.791 393.524 472.776 385.868C422.756 370.558 357.594 342.216 289.155 304.465C220.715 266.715 161.982 226.717 122.349 192.575C102.53 175.501 87.5079 159.909 78.4343 146.81C73.8969 140.259 70.8635 134.355 69.4517 129.218C68.0405 124.084 68.2602 119.762 70.1597 116.319C72.0593 112.875 75.5976 110.384 80.693 108.839C85.7907 107.293 92.4028 106.709 100.364 107.052C116.285 107.739 137.486 112.128 162.501 119.784C212.521 135.094 277.683 163.436 346.122 201.187C414.562 238.937 473.295 278.934 512.928 313.077C532.747 330.15 547.769 345.742 556.843 358.842C561.38 365.393 564.414 371.297 565.825 376.434C567.237 381.568 567.017 385.889 565.117 389.333Z" stroke="white"/>
<path d="M544.887 426.007C542.987 429.451 539.449 431.942 534.354 433.487C529.256 435.033 522.644 435.617 514.683 435.273C498.762 434.587 477.56 430.198 452.546 422.542C402.526 407.232 337.364 378.89 268.924 341.139C200.485 303.388 141.752 263.391 102.119 229.249C82.2995 212.175 67.2774 196.583 58.2038 183.483C53.6664 176.933 50.6331 171.029 49.2212 165.892C47.81 160.758 48.0297 156.436 49.9293 152.992C51.8289 149.549 55.3672 147.057 60.4625 145.512C65.5603 143.967 72.1723 143.383 80.1336 143.726C96.0541 144.413 117.256 148.802 142.27 156.458C192.291 171.767 257.452 200.11 325.892 237.86C394.331 275.611 453.064 315.608 492.697 349.75C512.517 366.824 527.539 382.416 536.612 395.516C541.15 402.067 544.183 407.971 545.595 413.107C547.006 418.241 546.786 422.563 544.887 426.007Z" stroke="white"/>
<path d="M524.658 462.681C522.759 466.125 519.22 468.616 514.125 470.161C509.027 471.707 502.415 472.291 494.454 471.947C478.533 471.26 457.332 466.872 432.317 459.216C382.297 443.906 317.135 415.564 248.696 377.813C180.256 340.062 121.523 300.065 81.8905 265.923C62.071 248.849 47.0489 233.257 37.9753 220.157C33.4379 213.607 30.4045 207.702 28.9927 202.566C27.5815 197.432 27.8012 193.11 29.7008 189.666C31.6003 186.222 35.1386 183.731 40.234 182.186C45.3318 180.64 51.9438 180.057 59.9051 180.4C75.8256 181.087 97.0273 185.476 122.042 193.132C172.062 208.441 237.224 236.784 305.663 274.534C374.103 312.285 432.836 352.282 472.469 386.424C492.288 403.498 507.31 419.09 516.384 432.19C520.921 438.741 523.955 444.645 525.366 449.781C526.778 454.915 526.558 459.237 524.658 462.681Z" stroke="white"/>
<circle cx="132.037" cy="104.5" r="15.5" fill="url(#paint0_linear_393_323)"/>
<circle cx="421.537" cy="435" r="10" fill="url(#paint1_linear_393_323)"/>
<circle cx="82.0371" cy="64.5" r="23.5" fill="white"/>
<path d="M475.723 81.5974C493.623 72.1937 500.547 50.1159 491.187 32.2852C481.827 14.4545 459.729 7.62311 441.829 17.0268C423.929 26.4305 417.006 48.5083 426.365 66.339C435.725 84.1697 457.823 91.0011 475.723 81.5974Z" fill="white"/>
<path d="M442.104 38.2357C443.827 35.8854 446.372 34.4361 449.27 34.1227C451.462 33.8877 453.498 34.3578 455.417 35.5329C456.396 36.1205 457.257 36.8647 458.08 37.7656C458.667 36.708 459.372 35.7679 460.194 34.9845C461.799 33.4177 463.718 32.5167 465.872 32.2817C468.769 31.9683 471.588 32.8301 473.781 34.7495C475.934 36.6297 477.305 39.3717 477.657 42.4662C478.01 45.639 477.148 48.6943 474.956 52.063C472.998 55.0792 470.022 58.2129 466.576 61.895C465.402 63.1484 464.07 64.5586 462.7 66.0471C462.348 66.4388 461.839 66.713 461.29 66.7522C460.742 66.8305 460.233 66.6738 459.763 66.3605C458.08 65.1853 456.474 64.0885 455.065 63.1484C450.914 60.3281 447.312 57.8995 444.728 55.3926C441.83 52.6114 440.342 49.7911 439.99 46.6183C439.677 43.5238 440.421 40.5468 442.104 38.2357Z" fill="url(#paint2_linear_393_323)"/>
<path d="M577.272 83.5915C590.377 70.4819 590.377 49.2271 577.272 36.1175C564.168 23.0079 542.922 23.0079 529.817 36.1175C516.713 49.2271 516.713 70.4819 529.817 83.5915C542.922 96.7011 564.168 96.7011 577.272 83.5915Z" fill="url(#paint3_linear_393_323)"/>
<path d="M553.539 94.2727C534.587 94.2727 519.121 78.8394 519.121 59.8414C519.121 40.8827 534.548 25.4102 553.539 25.4102C572.529 25.4102 587.956 40.8435 587.956 59.8414C587.956 78.8002 572.529 94.2727 553.539 94.2727ZM553.539 27.1337C535.527 27.1337 520.844 41.7836 520.844 59.8414C520.844 77.8601 535.488 92.5492 553.539 92.5492C571.55 92.5492 586.233 77.8993 586.233 59.8414C586.233 41.8228 571.589 27.1337 553.539 27.1337Z" fill="url(#paint4_linear_393_323)"/>
<path d="M562.622 63.1703C560.743 63.1703 559.098 64.0713 558.002 65.4814L546.686 61.0551C546.686 60.8984 546.725 60.7809 546.725 60.6242C546.725 60.35 546.686 60.0758 546.647 59.8016L558.237 54.4352C559.294 55.6495 560.86 56.4329 562.622 56.4721C565.833 56.4721 568.495 53.8476 568.495 50.5965C568.495 47.3453 565.872 44.6816 562.622 44.6816C559.411 44.6816 556.749 47.3061 556.749 50.5573C556.749 50.8315 556.788 51.1057 556.827 51.3799L545.237 56.7463C544.18 55.532 542.614 54.7486 540.852 54.7094C537.641 54.7094 534.979 57.3339 534.979 60.5851C534.979 63.8363 537.602 66.4999 540.852 66.4999C542.731 66.4999 544.376 65.5989 545.472 64.1888L556.788 68.6151C556.788 68.7718 556.749 68.8893 556.749 69.046C556.749 72.2972 559.372 74.9608 562.622 74.9608C565.833 74.9608 568.495 72.3364 568.495 69.0852C568.456 65.834 565.833 63.2095 562.622 63.1703Z" fill="white"/>
<path d="M563.067 189.992C578.433 179.321 582.294 158.282 571.69 142.998C561.085 127.714 540.032 123.974 524.665 134.644C509.299 145.314 505.438 166.354 516.042 181.638C526.647 196.922 547.7 200.662 563.067 189.992Z" fill="white"/>
<path d="M534.411 178.372L529.478 151.619C529.243 150.248 530.496 149.112 531.827 149.464L560.998 157.729C562.486 158.16 562.838 160.08 561.624 161.02L537.348 179.508C536.291 180.37 534.685 179.783 534.411 178.372Z" fill="url(#paint5_linear_393_323)"/>
<path d="M563.605 275.264C569.068 254.876 557.068 233.941 536.802 228.504C516.536 223.067 495.679 235.187 490.216 255.575C484.753 275.963 496.753 296.898 517.019 302.335C537.285 307.772 558.142 295.652 563.605 275.264Z" fill="url(#paint6_linear_393_323)"/>
<path d="M546.375 259.261C545.983 268.779 529.891 291.028 526.053 296.238C525.662 296.787 524.84 296.747 524.487 296.16C522.06 292.243 514.033 279.081 509.843 268.427C508.16 264.196 507.102 260.358 507.22 257.655C507.651 246.844 516.774 238.422 527.581 238.853C538.387 239.362 546.806 248.45 546.375 259.261Z" fill="white"/>
<path d="M533.13 264.825C536.632 261.322 536.632 255.643 533.13 252.14C529.628 248.637 523.951 248.637 520.45 252.14C516.948 255.643 516.948 261.322 520.45 264.825C523.951 268.328 529.628 268.328 533.13 264.825Z" fill="url(#paint7_linear_393_323)"/>
<path fill-rule="evenodd" clip-rule="evenodd" d="M219.649 305.403C218.77 304.892 217.883 304.395 217.017 303.869C212.156 300.888 208.297 296.928 205.621 291.891C201.012 283.191 199.821 274.048 202.258 264.482C203.187 260.911 204.594 257.483 206.441 254.29C208.587 250.538 211.22 247.086 214.271 244.024C219.147 239.098 224.757 235.21 230.954 232.13C235.613 229.825 240.498 228.01 245.531 226.713C250.239 225.457 254.839 223.829 259.29 221.845C264.914 219.374 270.319 216.483 275.709 213.544C280.467 210.944 285.194 208.295 290.057 205.915C293.703 204.081 297.476 202.511 301.347 201.218C306.205 199.646 311.164 198.735 316.31 199.085C320.138 199.339 323.886 200.303 327.362 201.927C331.326 203.746 335.033 206.08 338.387 208.87C343.442 213.099 347.285 218.592 349.525 224.791C351.115 229.098 352.059 233.558 352.751 238.073C353.491 242.869 353.959 247.695 354.521 252.51C355.159 257.934 355.919 263.339 357.103 268.678C358.28 273.991 359.926 279.19 362.021 284.213C364.574 290.268 366.365 296.617 367.352 303.114C368.206 308.674 368.29 314.326 367.6 319.909C367.062 324.26 365.922 328.515 364.211 332.551C361.577 338.713 357.718 343.948 352.337 348.011C347.353 351.776 341.723 354.009 335.575 354.946C331.048 355.639 326.532 355.638 322.041 354.663C320.447 354.325 318.881 353.868 317.355 353.296C317.144 353.215 316.932 353.156 316.716 353.094C316.475 353.105 316.308 352.922 316.094 352.845C315.914 352.79 315.778 352.634 315.571 352.655L311.838 350.821C311.74 350.645 311.537 350.635 311.388 350.539L310.599 350.152C307.467 348.484 304.703 346.304 301.971 344.072C297.352 340.292 293.02 336.178 288.474 332.305C284.817 329.15 280.952 326.246 276.904 323.611C274.076 321.83 271.119 320.262 268.059 318.92C265.629 317.827 263.066 317.027 260.498 316.309C255.423 314.902 250.262 313.912 245.096 312.92C239.629 311.88 234.169 310.827 228.839 309.211C226.673 308.55 224.529 307.844 222.495 306.823C222.08 306.608 221.634 306.467 221.215 306.25C220.689 305.953 220.115 305.788 219.643 305.405M413.138 144.035C419.452 148.138 422.907 154.072 424.183 161.376C425.055 166.383 424.712 171.353 423.586 176.291C422.598 180.519 421.056 184.598 418.999 188.422C415.284 195.426 410.132 201.567 403.88 206.441C399.569 209.878 394.691 212.536 389.466 214.295C384.772 215.841 379.969 216.56 375.025 216.051C371.553 215.69 368.266 214.747 365.23 213.02C359.962 210.047 356.417 205.63 354.399 199.971C352.675 195.139 352.339 190.149 352.894 185.088C353.295 181.565 354.113 178.102 355.33 174.771C356.146 172.485 357.125 170.262 358.262 168.118C360.941 163.064 364.319 158.521 368.371 154.489C372.616 150.188 377.583 146.665 383.047 144.083C387.692 141.92 392.548 140.544 397.687 140.292C401.437 140.081 405.191 140.62 408.73 141.876C408.863 141.868 408.962 141.951 409.071 141.993L409.391 142.15C409.557 142.209 409.684 142.361 409.877 142.322L412.078 143.403C412.162 143.584 412.362 143.587 412.507 143.68L412.831 143.84C412.935 143.891 413.059 143.924 413.138 144.035ZM219.781 147.46C220.891 145.464 222.248 143.634 223.757 141.918C226.693 138.585 230.118 135.919 234.251 134.227C238.736 132.324 243.729 131.982 248.431 133.254C252.348 134.305 255.728 136.334 258.664 139.109C262.048 142.293 264.542 146.115 266.338 150.378C269.128 156.982 270.07 163.886 269.567 171.006C269.207 176.546 267.808 181.969 265.443 186.992C264.008 190.101 262.158 193.002 259.944 195.614C256.96 199.102 253.455 201.886 249.185 203.651C244.436 205.682 239.119 205.954 234.188 204.418C230.459 203.28 227.25 201.234 224.458 198.53C220.705 194.89 218.094 190.519 216.305 185.638C214.589 180.916 213.704 175.932 213.688 170.908C213.622 165.975 214.342 161.063 215.821 156.356C216.091 155.521 216.379 154.694 216.652 153.865C216.746 153.469 216.961 153.122 217.044 152.726C217.077 152.557 217.168 152.428 217.239 152.273C217.302 152.074 217.488 151.914 217.461 151.671L218.865 148.812C219.174 148.639 219.226 148.306 219.381 148.036C219.501 147.837 219.558 147.585 219.781 147.46ZM289.413 124.81C292.222 119.148 295.539 114.435 299.856 110.443C303.112 107.425 306.748 104.991 310.923 103.409C315.422 101.689 320.033 101.144 324.779 102.149C329.527 103.148 333.525 105.493 336.877 108.969C339.829 112.042 341.955 115.633 343.468 119.595C345.881 125.907 346.609 132.46 346.128 139.171C345.826 143.433 345.011 147.6 343.712 151.669C342.978 153.972 342.097 156.232 341.073 158.432C339.784 161.204 338.244 163.852 336.471 166.342C332.747 171.543 328.235 175.876 322.518 178.855C319.017 180.729 315.144 181.8 311.178 181.989C306.771 182.19 302.402 181.087 298.618 178.82C295.119 176.76 292.348 173.922 290.134 170.534C287.242 166.119 285.54 161.242 284.672 156.058C283.691 149.952 283.842 143.718 285.119 137.667C285.796 134.333 286.778 131.068 288.051 127.913C288.448 126.854 288.903 125.818 289.413 124.81ZM443.403 261.423L443.08 262.082C440.145 267.43 436.152 271.855 431.384 275.603C427.664 278.535 423.513 280.875 419.078 282.539C413.353 284.68 407.453 285.65 401.337 284.963C397.697 284.596 394.169 283.492 390.969 281.718C386.309 279.175 382.719 275.04 380.857 270.068C379.245 265.851 378.958 261.501 379.596 257.079C380.179 253.141 381.443 249.333 383.331 245.828C387.455 238.047 393.475 232.093 401.031 227.649C403.577 226.145 406.271 224.906 409.071 223.952C414.827 221.999 420.699 221.211 426.76 222.101C430.177 222.576 433.469 223.713 436.45 225.449C440.945 228.036 444.385 232.123 446.166 236.994C447.849 241.498 448.037 246.13 447.212 250.829C446.761 253.423 446.009 255.936 444.922 258.341L444.597 259.004C444.177 259.799 443.776 260.605 443.403 261.423Z" fill="url(#paint8_linear_393_323)"/>
<defs>
<linearGradient id="paint0_linear_393_323" x1="147.537" y1="89" x2="116.537" y2="120" gradientUnits="userSpaceOnUse">
<stop offset="0.243506" stop-color="#FFAE4E"/>
<stop offset="0.859185" stop-color="#FF4C8C"/>
</linearGradient>
<linearGradient id="paint1_linear_393_323" x1="431.537" y1="425" x2="411.537" y2="445" gradientUnits="userSpaceOnUse">
<stop offset="0.243506" stop-color="#FFAE4E"/>
<stop offset="0.859185" stop-color="#FF4C8C"/>
</linearGradient>
<linearGradient id="paint2_linear_393_323" x1="477.734" y1="32.2188" x2="443.32" y2="69.8793" gradientUnits="userSpaceOnUse">
<stop offset="0.243506" stop-color="#FFAE4E"/>
<stop offset="0.859185" stop-color="#FF4C8C"/>
</linearGradient>
<linearGradient id="paint3_linear_393_323" x1="553.545" y1="12.3805" x2="553.545" y2="107.329" gradientUnits="userSpaceOnUse">
<stop offset="0.243506" stop-color="#FFAE4E"/>
<stop offset="0.859185" stop-color="#FF4C8C"/>
</linearGradient>
<linearGradient id="paint4_linear_393_323" x1="587.956" y1="25.4102" x2="519.093" y2="94.2451" gradientUnits="userSpaceOnUse">
<stop offset="0.243506" stop-color="#FFAE4E"/>
<stop offset="0.859185" stop-color="#FF4C8C"/>
</linearGradient>
<linearGradient id="paint5_linear_393_323" x1="562.357" y1="149.399" x2="531.932" y2="182.213" gradientUnits="userSpaceOnUse">
<stop offset="0.243506" stop-color="#FFAE4E"/>
<stop offset="0.859185" stop-color="#FF4C8C"/>
</linearGradient>
<linearGradient id="paint6_linear_393_323" x1="500.107" y1="218.659" x2="554.265" y2="311.859" gradientUnits="userSpaceOnUse">
<stop offset="0.243506" stop-color="#FFAE4E"/>
<stop offset="0.859185" stop-color="#FF4C8C"/>
</linearGradient>
<linearGradient id="paint7_linear_393_323" x1="526.79" y1="245.797" x2="526.79" y2="271.168" gradientUnits="userSpaceOnUse">
<stop offset="0.243506" stop-color="#FFAE4E"/>
<stop offset="0.859185" stop-color="#FF4C8C"/>
</linearGradient>
<linearGradient id="paint8_linear_393_323" x1="484.02" y1="178.737" x2="167.696" y2="302.181" gradientUnits="userSpaceOnUse">
<stop offset="0.243506" stop-color="#FFAE4E"/>
<stop offset="0.859185" stop-color="#FF4C8C"/>
</linearGradient>
<clipPath id="clip0_393_323">
<rect width="36" height="36" fill="white" transform="translate(293.537 427)"/>
</clipPath>
<clipPath id="clip1_393_323">
<rect width="70.3259" height="70.3259" fill="white" transform="translate(108.266 313) rotate(45)"/>
</clipPath>
</defs>
</svg>
