<svg width="100" height="99" viewBox="0 0 100 99" fill="none" xmlns="http://www.w3.org/2000/svg">
<path d="M66.7234 81.5974C84.6235 72.1937 91.5468 50.1159 82.1871 32.2852C72.8274 14.4545 50.729 7.62311 32.8289 17.0268C14.9289 26.4305 8.00551 48.5083 17.3652 66.339C26.7249 84.1697 48.8233 91.0011 66.7234 81.5974Z" fill="white"/>
<path d="M33.1043 38.2357C34.8271 35.8854 37.3722 34.4361 40.2697 34.1227C42.4624 33.8877 44.4985 34.3578 46.4171 35.5329C47.396 36.1205 48.2574 36.8647 49.0796 37.7656C49.667 36.708 50.3718 35.7679 51.194 34.9845C52.7994 33.4177 54.718 32.5167 56.8715 32.2817C59.769 31.9683 62.5882 32.8301 64.7809 34.7495C66.9344 36.6297 68.3049 39.3717 68.6573 42.4662C69.0097 45.639 68.1482 48.6943 65.9555 52.063C63.9978 55.0792 61.022 58.2129 57.5763 61.895C56.4017 63.1484 55.0704 64.5586 53.7 66.0471C53.3476 66.4388 52.8386 66.713 52.2904 66.7522C51.7422 66.8305 51.2332 66.6738 50.7633 66.3605C49.0796 65.1853 47.4743 64.0885 46.0647 63.1484C41.9142 60.3281 38.3119 57.8995 35.7277 55.3926C32.8302 52.6114 31.3423 49.7911 30.9899 46.6183C30.6767 43.5238 31.4206 40.5468 33.1043 38.2357Z" fill="url(#paint0_linear_393_336)"/>
<defs>
<linearGradient id="paint0_linear_393_336" x1="68.7336" y1="32.2188" x2="34.3202" y2="69.8793" gradientUnits="userSpaceOnUse">
<stop offset="0.243506" stop-color="#FFAE4E"/>
<stop offset="0.859185" stop-color="#FF4C8C"/>
</linearGradient>
</defs>
</svg>
