<svg width="94" height="95" viewBox="0 0 94 95" fill="none" xmlns="http://www.w3.org/2000/svg">
<path d="M83.6048 57.2642C89.0677 36.8763 77.0675 15.9411 56.8017 10.504C36.5359 5.0669 15.6786 17.1869 10.2157 37.5748C4.75278 57.9626 16.7529 78.8979 37.0188 84.335C57.2846 89.772 78.1419 77.652 83.6048 57.2642Z" fill="url(#paint0_linear_393_348)"/>
<path d="M66.3751 41.2608C65.9835 50.7794 49.8907 73.0285 46.0535 78.2382C45.6619 78.7866 44.8397 78.7475 44.4873 78.1599C42.0596 74.2428 34.0328 61.0813 29.8432 50.4268C28.1595 46.1964 27.1024 42.3576 27.2198 39.6548C27.6505 28.8436 36.7737 20.4219 47.5805 20.8527C58.3874 21.362 66.8058 30.4496 66.3751 41.2608Z" fill="white"/>
<path d="M53.1301 46.8252C56.6317 43.3222 56.6317 37.6427 53.1301 34.1396C49.6285 30.6366 43.9513 30.6366 40.4496 34.1396C36.948 37.6426 36.948 43.3222 40.4496 46.8252C43.9513 50.3283 49.6285 50.3282 53.1301 46.8252Z" fill="url(#paint1_linear_393_348)"/>
<defs>
<linearGradient id="paint0_linear_393_348" x1="20.1072" y1="0.659268" x2="74.2649" y2="93.8591" gradientUnits="userSpaceOnUse">
<stop offset="0.243506" stop-color="#FFAE4E"/>
<stop offset="0.859185" stop-color="#FF4C8C"/>
</linearGradient>
<linearGradient id="paint1_linear_393_348" x1="46.7899" y1="27.7968" x2="46.7899" y2="53.168" gradientUnits="userSpaceOnUse">
<stop offset="0.243506" stop-color="#FFAE4E"/>
<stop offset="0.859185" stop-color="#FF4C8C"/>
</linearGradient>
</defs>
</svg>
