<svg width="95" height="96" viewBox="0 0 95 96" fill="none" xmlns="http://www.w3.org/2000/svg">
<path d="M71.2723 71.5915C84.3766 58.4819 84.3766 37.2271 71.2723 24.1175C58.1679 11.0079 36.9216 11.0079 23.8173 24.1175C10.713 37.2271 10.713 58.4819 23.8173 71.5915C36.9216 84.7011 58.1679 84.7011 71.2723 71.5915Z" fill="url(#paint0_linear_393_340)"/>
<path d="M47.5386 82.2727C28.5874 82.2727 13.1211 66.8394 13.1211 47.8414C13.1211 28.8827 28.5483 13.4102 47.5386 13.4102C66.5289 13.4102 81.956 28.8435 81.956 47.8414C81.956 66.8002 66.5289 82.2727 47.5386 82.2727ZM47.5386 15.1337C29.5271 15.1337 14.8439 29.7836 14.8439 47.8414C14.8439 65.8601 29.488 80.5492 47.5386 80.5492C65.55 80.5492 80.2332 65.8993 80.2332 47.8414C80.2332 29.8228 65.5891 15.1337 47.5386 15.1337Z" fill="url(#paint1_linear_393_340)"/>
<path d="M56.6221 51.1703C54.7427 51.1703 53.0982 52.0713 52.0018 53.4814L40.6859 49.0551C40.6859 48.8984 40.7251 48.7809 40.7251 48.6242C40.7251 48.35 40.686 48.0758 40.6468 47.8016L52.2367 42.4352C53.2939 43.6495 54.8601 44.4329 56.6221 44.4721C59.8328 44.4721 62.4954 41.8476 62.4954 38.5965C62.4954 35.3453 59.872 32.6816 56.6221 32.6816C53.4114 32.6816 50.7488 35.3061 50.7488 38.5573C50.7488 38.8315 50.788 39.1057 50.8272 39.3799L39.2372 44.7463C38.18 43.532 36.6138 42.7486 34.8518 42.7094C31.6411 42.7094 28.9785 45.3339 28.9785 48.5851C28.9785 51.8363 31.6019 54.4999 34.8518 54.4999C36.7313 54.4999 38.3758 53.5989 39.4721 52.1888L50.788 56.6151C50.788 56.7718 50.7488 56.8893 50.7488 57.046C50.7488 60.2972 53.3722 62.9608 56.6221 62.9608C59.8328 62.9608 62.4954 60.3364 62.4954 57.0852C62.4562 53.834 59.8328 51.2095 56.6221 51.1703Z" fill="white"/>
<defs>
<linearGradient id="paint0_linear_393_340" x1="47.5448" y1="0.380474" x2="47.5448" y2="95.3285" gradientUnits="userSpaceOnUse">
<stop offset="0.243506" stop-color="#FFAE4E"/>
<stop offset="0.859185" stop-color="#FF4C8C"/>
</linearGradient>
<linearGradient id="paint1_linear_393_340" x1="81.956" y1="13.4102" x2="13.0934" y2="82.2451" gradientUnits="userSpaceOnUse">
<stop offset="0.243506" stop-color="#FFAE4E"/>
<stop offset="0.859185" stop-color="#FF4C8C"/>
</linearGradient>
</defs>
</svg>
