<svg width="25" height="25" viewBox="0 0 25 25" fill="none" xmlns="http://www.w3.org/2000/svg">
<path d="M24.9504 15.9496C24.1585 18.5354 22.5714 20.8055 20.4149 22.4368C18.5216 23.8621 16.2686 24.7314 13.9088 24.9471C11.549 25.1628 9.17574 24.7163 7.05551 23.6579C4.93527 22.5995 3.15193 20.9709 1.90565 18.955C0.659372 16.9391 -0.000513883 14.6157 5.99936e-05 12.2455C-0.00845991 9.47903 0.890693 6.78614 2.55958 4.57998C4.19058 2.42303 6.46018 0.835546 9.0454 0.0434343C9.21579 -0.0090422 9.39725 -0.0140672 9.57028 0.0288997C9.74331 0.0718667 9.90136 0.1612 10.0274 0.287292C10.1535 0.413384 10.2428 0.571464 10.2858 0.744531C10.3287 0.917598 10.3237 1.0991 10.2712 1.26953C9.70593 3.13985 9.65853 5.12853 10.1341 7.02367C10.6096 8.91881 11.5903 10.6494 12.9716 12.031C14.353 13.4127 16.0832 14.3936 17.9779 14.8692C19.8726 15.3449 21.8608 15.2975 23.7308 14.732C23.9011 14.6796 24.0826 14.6745 24.2556 14.7175C24.4287 14.7605 24.5867 14.8498 24.7128 14.9759C24.8388 15.102 24.9281 15.2601 24.9711 15.4331C25.0141 15.6062 25.009 15.7877 24.9566 15.9581L24.9504 15.9496Z" fill="url(#paint0_linear_393_697)"/>
<defs>
<linearGradient id="paint0_linear_393_697" x1="25" y1="0" x2="0" y2="25" gradientUnits="userSpaceOnUse">
<stop offset="0.243506" stop-color="#FFAE4E"/>
<stop offset="0.859185" stop-color="#FF4C8C"/>
</linearGradient>
</defs>
</svg>
