<svg width="25" height="26" viewBox="0 0 25 26" fill="none" xmlns="http://www.w3.org/2000/svg">
<path d="M12.4993 21.75C12.8308 21.75 13.1488 21.8817 13.3832 22.1161C13.6177 22.3505 13.7494 22.6685 13.7494 23V24.25C13.7494 24.5815 13.6177 24.8995 13.3832 25.1339C13.1488 25.3683 12.8308 25.5 12.4993 25.5C12.1678 25.5 11.8498 25.3683 11.6154 25.1339C11.3809 24.8995 11.2492 24.5815 11.2492 24.25V23C11.2492 22.6685 11.3809 22.3505 11.6154 22.1161C11.8498 21.8817 12.1678 21.75 12.4993 21.75ZM20.4547 19.1875L21.3385 20.0712C21.5663 20.307 21.6923 20.6228 21.6894 20.9505C21.6866 21.2782 21.5551 21.5918 21.3233 21.8235C21.0915 22.0553 20.778 22.1867 20.4502 22.1896C20.1225 22.1924 19.8067 22.0664 19.5709 21.8387L18.6872 20.955C18.4594 20.7192 18.3334 20.4035 18.3363 20.0757C18.3391 19.748 18.4706 19.4345 18.7024 19.2027C18.9342 18.971 19.2477 18.8395 19.5754 18.8367C19.9032 18.8338 20.219 18.9598 20.4547 19.1875ZM4.54387 19.1875C4.76883 18.9633 5.07069 18.8332 5.38814 18.8235C5.7056 18.8138 6.01484 18.9253 6.25306 19.1353C6.49128 19.3454 6.64061 19.6382 6.67073 19.9543C6.70085 20.2705 6.6095 20.5863 6.41522 20.8375L6.31147 20.955L5.42767 21.8387C5.20271 22.0629 4.90084 22.1931 4.58339 22.2028C4.26593 22.2125 3.95669 22.101 3.71847 21.8909C3.48025 21.6809 3.33092 21.3881 3.3008 21.0719C3.27068 20.7558 3.36204 20.44 3.55631 20.1887L3.66007 20.0712L4.54387 19.1875ZM12.4993 5.5C14.4885 5.5 16.3963 6.29018 17.8029 7.6967C19.2095 9.10322 19.9997 11.0109 19.9997 13C19.9997 14.9891 19.2095 16.8968 17.8029 18.3033C16.3963 19.7098 14.4885 20.5 12.4993 20.5C10.5101 20.5 8.60231 19.7098 7.19571 18.3033C5.78911 16.8968 4.99889 14.9891 4.99889 13C4.99889 11.0109 5.78911 9.10322 7.19571 7.6967C8.60231 6.29018 10.5101 5.5 12.4993 5.5ZM2.49875 11.75C2.81737 11.7504 3.12383 11.8723 3.35551 12.0911C3.58719 12.3098 3.72661 12.6087 3.74529 12.9267C3.76396 13.2448 3.66047 13.558 3.45598 13.8023C3.25148 14.0466 2.9614 14.2036 2.64501 14.2413L2.49875 14.25H1.24868C0.930067 14.2496 0.623609 14.1277 0.391927 13.9089C0.160244 13.6902 0.0208226 13.3913 0.00215016 13.0733C-0.0165223 12.7552 0.0869632 12.442 0.291462 12.1977C0.495962 11.9534 0.786039 11.7964 1.10243 11.7587L1.24868 11.75H2.49875ZM23.7499 11.75C24.0815 11.75 24.3994 11.8817 24.6339 12.1161C24.8683 12.3505 25 12.6685 25 13C25 13.3315 24.8683 13.6495 24.6339 13.8839C24.3994 14.1183 24.0815 14.25 23.7499 14.25H22.4999C22.1683 14.25 21.8504 14.1183 21.6159 13.8839C21.3815 13.6495 21.2498 13.3315 21.2498 13C21.2498 12.6685 21.3815 12.3505 21.6159 12.1161C21.8504 11.8817 22.1683 11.75 22.4999 11.75H23.7499ZM3.66007 4.16125C3.87532 3.94603 4.16171 3.81674 4.46551 3.79764C4.76931 3.77854 5.06964 3.87094 5.31016 4.0575L5.42767 4.16125L6.31147 5.045C6.53566 5.26995 6.66583 5.57179 6.67552 5.88923C6.68521 6.20667 6.57371 6.51589 6.36366 6.7541C6.1536 6.99231 5.86075 7.14163 5.54458 7.17175C5.22841 7.20187 4.91263 7.11051 4.66137 6.91625L4.54387 6.8125L3.66007 5.92875C3.42572 5.69434 3.29406 5.37646 3.29406 5.045C3.29406 4.71354 3.42572 4.39566 3.66007 4.16125ZM21.3385 4.16125C21.5729 4.39566 21.7045 4.71354 21.7045 5.045C21.7045 5.37646 21.5729 5.69434 21.3385 5.92875L20.4547 6.8125C20.3394 6.93189 20.2015 7.02712 20.049 7.09263C19.8965 7.15814 19.7324 7.19262 19.5665 7.19406C19.4005 7.19551 19.2359 7.16388 19.0822 7.10103C18.9286 7.03818 18.789 6.94536 18.6717 6.82799C18.5543 6.71063 18.4615 6.57106 18.3986 6.41744C18.3358 6.26382 18.3041 6.09922 18.3056 5.93325C18.307 5.76727 18.3415 5.60325 18.407 5.45074C18.4725 5.29824 18.5678 5.16031 18.6872 5.045L19.5709 4.16125C19.8054 3.92691 20.1233 3.79527 20.4547 3.79527C20.7862 3.79527 21.1041 3.92691 21.3385 4.16125ZM12.4993 0.5C12.8308 0.5 13.1488 0.631696 13.3832 0.866116C13.6177 1.10054 13.7494 1.41848 13.7494 1.75V3C13.7494 3.33152 13.6177 3.64946 13.3832 3.88388C13.1488 4.1183 12.8308 4.25 12.4993 4.25C12.1678 4.25 11.8498 4.1183 11.6154 3.88388C11.3809 3.64946 11.2492 3.33152 11.2492 3V1.75C11.2492 1.41848 11.3809 1.10054 11.6154 0.866116C11.8498 0.631696 12.1678 0.5 12.4993 0.5Z" fill="url(#paint0_linear_393_316)"/>
<defs>
<linearGradient id="paint0_linear_393_316" x1="25" y1="0.5" x2="0" y2="25.5" gradientUnits="userSpaceOnUse">
<stop offset="0.243506" stop-color="#FFAE4E"/>
<stop offset="0.859185" stop-color="#FF4C8C"/>
</linearGradient>
</defs>
</svg>
