<svg width="80" height="80" viewBox="0 0 64 64" fill="none" xmlns="http://www.w3.org/2000/svg">
<path d="M32 0C25.671 0 19.4841 1.87677 14.2218 5.39297C8.95939 8.90918 4.85787 13.9069 2.43587 19.7541C0.0138651 25.6014 -0.619842 32.0355 0.614885 38.2429C1.84961 44.4503 4.89732 50.1521 9.37259 54.6274C13.8479 59.1027 19.5497 62.1504 25.7571 63.3851C31.9645 64.6198 38.3986 63.9861 44.2459 61.5641C50.0931 59.1421 55.0908 55.0406 58.607 49.7782C62.1232 44.5159 64 38.329 64 32C64 23.5131 60.6286 15.3737 54.6274 9.37258C48.6263 3.37142 40.4869 0 32 0ZM32 59.4286C26.5752 59.4286 21.2721 57.8199 16.7615 54.806C12.2509 51.7921 8.73532 47.5084 6.65932 42.4965C4.58331 37.4845 4.04014 31.9696 5.09847 26.6489C6.15681 21.3283 8.76913 16.441 12.6051 12.6051C16.441 8.76911 21.3283 6.1568 26.649 5.09846C31.9696 4.04012 37.4846 4.5833 42.4965 6.6593C47.5084 8.73531 51.7921 12.2509 54.806 16.7615C57.8199 21.2721 59.4286 26.5751 59.4286 32C59.4286 39.2745 56.5388 46.2511 51.3949 51.3949C46.2511 56.5388 39.2745 59.4286 32 59.4286Z" fill="url(#paint0_linear_458_606)"/>
<defs>
<linearGradient id="paint0_linear_458_606" x1="64" y1="0" x2="0" y2="64" gradientUnits="userSpaceOnUse">
<stop offset="0.243506" stop-color="#FFAE4E"/>
<stop offset="0.859185" stop-color="#FF4C8C"/>
</linearGradient>
</defs>
</svg>
