<svg width="601" height="515" viewBox="0 0 601 515" fill="none" xmlns="http://www.w3.org/2000/svg">
<g clip-path="url(#clip0_393_704)">
<path d="M311.536 432.535L329.137 427.35L324.001 445.001L329.137 462.602L311.536 457.466L293.885 462.602L299.07 445.001L293.885 427.35L311.536 432.535Z" fill="black" stroke="black" stroke-miterlimit="10"/>
</g>
<g clip-path="url(#clip1_393_704)">
<path d="M125.484 345.51L156.96 362.66L125.484 379.947L108.266 411.354L91.0468 379.947L59.5708 362.66L91.0468 345.51L108.266 313.965L125.484 345.51Z" fill="black" stroke="black" stroke-miterlimit="10"/>
</g>
<path d="M565.115 389.333C563.216 392.777 559.677 395.268 554.582 396.813C549.484 398.359 542.872 398.943 534.911 398.6C518.99 397.913 497.789 393.524 472.775 385.868C422.754 370.558 357.592 342.216 289.153 304.465C220.713 266.715 161.98 226.717 122.348 192.575C102.528 175.501 87.5059 159.909 78.4323 146.81C73.8949 140.259 70.8616 134.355 69.4497 129.218C68.0386 124.084 68.2582 119.762 70.1578 116.319C72.0574 112.875 75.5957 110.384 80.691 108.839C85.7888 107.293 92.4009 106.709 100.362 107.052C116.283 107.739 137.484 112.128 162.499 119.784C212.519 135.094 277.681 163.436 346.12 201.187C414.56 238.937 473.293 278.934 512.926 313.077C532.745 330.15 547.767 345.742 556.841 358.842C561.378 365.393 564.412 371.297 565.823 376.434C567.235 381.568 567.015 385.889 565.115 389.333Z" stroke="black"/>
<path d="M544.887 426.007C542.987 429.451 539.449 431.942 534.354 433.487C529.256 435.033 522.644 435.617 514.683 435.273C498.762 434.587 477.56 430.198 452.546 422.542C402.526 407.232 337.364 378.89 268.924 341.139C200.485 303.388 141.752 263.391 102.119 229.249C82.2995 212.175 67.2774 196.583 58.2038 183.483C53.6664 176.933 50.6331 171.029 49.2212 165.892C47.81 160.758 48.0297 156.436 49.9293 152.992C51.8289 149.549 55.3672 147.057 60.4625 145.512C65.5603 143.967 72.1723 143.383 80.1336 143.726C96.0541 144.413 117.256 148.802 142.27 156.458C192.291 171.767 257.452 200.11 325.892 237.86C394.331 275.611 453.064 315.608 492.697 349.75C512.517 366.824 527.539 382.416 536.612 395.516C541.15 402.067 544.183 407.971 545.595 413.107C547.006 418.241 546.786 422.563 544.887 426.007Z" stroke="black"/>
<path d="M524.66 462.681C522.761 466.125 519.222 468.616 514.127 470.161C509.029 471.707 502.417 472.291 494.456 471.947C478.535 471.26 457.334 466.872 432.319 459.216C382.299 443.906 317.137 415.564 248.698 377.813C180.258 340.062 121.525 300.065 81.8925 265.923C62.073 248.849 47.0509 233.257 37.9773 220.157C33.4399 213.607 30.4065 207.702 28.9946 202.566C27.5835 197.432 27.8031 193.11 29.7027 189.666C31.6023 186.222 35.1406 183.731 40.2359 182.186C45.3337 180.64 51.9458 180.057 59.9071 180.4C75.8276 181.087 97.0293 185.476 122.044 193.132C172.064 208.441 237.226 236.784 305.665 274.534C374.105 312.285 432.838 352.282 472.471 386.424C492.29 403.498 507.312 419.09 516.386 432.19C520.923 438.741 523.957 444.645 525.368 449.781C526.779 454.915 526.56 459.237 524.66 462.681Z" stroke="black"/>
<circle cx="132.037" cy="104.5" r="15.5" fill="url(#paint0_linear_393_704)"/>
<circle cx="421.537" cy="435" r="10" fill="url(#paint1_linear_393_704)"/>
<circle cx="82.0371" cy="64.5" r="23.5" fill="black"/>
<path d="M475.723 81.5974C493.623 72.1937 500.547 50.1159 491.187 32.2852C481.827 14.4545 459.729 7.62311 441.829 17.0268C423.929 26.4305 417.006 48.5083 426.365 66.339C435.725 84.1697 457.823 91.0011 475.723 81.5974Z" fill="black"/>
<path d="M442.104 39.2357C443.827 36.8854 446.372 35.4361 449.27 35.1227C451.462 34.8877 453.498 35.3578 455.417 36.5329C456.396 37.1205 457.257 37.8647 458.08 38.7656C458.667 37.708 459.372 36.7679 460.194 35.9845C461.799 34.4177 463.718 33.5167 465.872 33.2817C468.769 32.9683 471.588 33.8301 473.781 35.7495C475.934 37.6297 477.305 40.3717 477.657 43.4662C478.01 46.639 477.148 49.6943 474.956 53.063C472.998 56.0792 470.022 59.2129 466.576 62.895C465.402 64.1484 464.07 65.5586 462.7 67.0471C462.348 67.4388 461.839 67.713 461.29 67.7522C460.742 67.8305 460.233 67.6738 459.763 67.3605C458.08 66.1853 456.474 65.0885 455.065 64.1484C450.914 61.3281 447.312 58.8995 444.728 56.3926C441.83 53.6114 440.342 50.7911 439.99 47.6183C439.677 44.5238 440.421 41.5468 442.104 39.2357Z" fill="url(#paint2_linear_393_704)"/>
<path d="M577.272 83.5915C590.377 70.4819 590.377 49.2271 577.272 36.1175C564.168 23.0079 542.922 23.0079 529.817 36.1175C516.713 49.2271 516.713 70.4819 529.817 83.5915C542.922 96.7011 564.168 96.7011 577.272 83.5915Z" fill="url(#paint3_linear_393_704)"/>
<path d="M553.539 94.2727C534.587 94.2727 519.121 78.8394 519.121 59.8414C519.121 40.8827 534.548 25.4102 553.539 25.4102C572.529 25.4102 587.956 40.8435 587.956 59.8414C587.956 78.8002 572.529 94.2727 553.539 94.2727ZM553.539 27.1337C535.527 27.1337 520.844 41.7836 520.844 59.8414C520.844 77.8601 535.488 92.5492 553.539 92.5492C571.55 92.5492 586.233 77.8993 586.233 59.8414C586.233 41.8228 571.589 27.1337 553.539 27.1337Z" fill="url(#paint4_linear_393_704)"/>
<path d="M562.622 63.1703C560.743 63.1703 559.098 64.0713 558.002 65.4814L546.686 61.0551C546.686 60.8984 546.725 60.7809 546.725 60.6242C546.725 60.35 546.686 60.0758 546.647 59.8016L558.237 54.4352C559.294 55.6495 560.86 56.4329 562.622 56.4721C565.833 56.4721 568.495 53.8476 568.495 50.5965C568.495 47.3453 565.872 44.6816 562.622 44.6816C559.411 44.6816 556.749 47.3061 556.749 50.5573C556.749 50.8315 556.788 51.1057 556.827 51.3799L545.237 56.7463C544.18 55.532 542.614 54.7486 540.852 54.7094C537.641 54.7094 534.979 57.3339 534.979 60.5851C534.979 63.8363 537.602 66.4999 540.852 66.4999C542.731 66.4999 544.376 65.5989 545.472 64.1888L556.788 68.6151C556.788 68.7718 556.749 68.8893 556.749 69.046C556.749 72.2972 559.372 74.9608 562.622 74.9608C565.833 74.9608 568.495 72.3364 568.495 69.0852C568.456 65.834 565.833 63.2095 562.622 63.1703Z" fill="black"/>
<path d="M563.067 189.992C578.433 179.321 582.294 158.282 571.69 142.998C561.085 127.714 540.032 123.974 524.665 134.644C509.299 145.314 505.438 166.354 516.042 181.638C526.647 196.922 547.7 200.662 563.067 189.992Z" fill="black"/>
<path d="M535.411 178.372L530.478 151.619C530.243 150.248 531.496 149.112 532.827 149.464L561.998 157.729C563.486 158.16 563.838 160.08 562.624 161.02L538.348 179.508C537.291 180.37 535.685 179.783 535.411 178.372Z" fill="url(#paint5_linear_393_704)"/>
<path d="M543.535 299.581C562.512 290.339 570.452 267.552 561.271 248.685C552.09 229.818 529.264 222.015 510.287 231.257C491.311 240.498 483.371 263.285 492.552 282.152C501.733 301.019 524.559 308.822 543.535 299.581Z" fill="url(#paint6_linear_393_704)"/>
<path d="M546.375 259.261C545.983 268.779 529.891 291.028 526.053 296.238C525.662 296.787 524.84 296.747 524.487 296.16C522.06 292.243 514.033 279.081 509.843 268.427C508.16 264.196 507.102 260.358 507.22 257.655C507.651 246.844 516.774 238.422 527.581 238.853C538.387 239.362 546.806 248.45 546.375 259.261Z" fill="black"/>
<path d="M533.13 264.826C536.632 261.323 536.632 255.644 533.13 252.141C529.628 248.638 523.951 248.638 520.45 252.141C516.948 255.644 516.948 261.323 520.45 264.826C523.951 268.329 529.628 268.329 533.13 264.826Z" fill="url(#paint7_linear_393_704)"/>
<path fill-rule="evenodd" clip-rule="evenodd" d="M219.651 305.403C218.772 304.892 217.885 304.395 217.018 303.869C212.158 300.888 208.299 296.928 205.623 291.891C201.014 283.191 199.823 274.048 202.26 264.482C203.189 260.911 204.596 257.483 206.443 254.29C208.589 250.538 211.222 247.086 214.272 244.024C219.149 239.098 224.759 235.21 230.956 232.13C235.614 229.825 240.5 228.01 245.533 226.713C250.241 225.457 254.841 223.829 259.292 221.845C264.916 219.374 270.321 216.483 275.711 213.544C280.469 210.944 285.196 208.295 290.059 205.915C293.705 204.081 297.478 202.511 301.349 201.218C306.207 199.646 311.166 198.735 316.311 199.085C320.14 199.339 323.888 200.303 327.364 201.927C331.328 203.746 335.035 206.08 338.389 208.87C343.444 213.099 347.287 218.592 349.527 224.791C351.117 229.098 352.06 233.558 352.753 238.073C353.493 242.869 353.961 247.695 354.523 252.51C355.161 257.934 355.921 263.339 357.105 268.678C358.282 273.991 359.928 279.19 362.023 284.213C364.576 290.268 366.367 296.617 367.354 303.114C368.208 308.674 368.292 314.326 367.602 319.909C367.064 324.26 365.924 328.515 364.213 332.551C361.579 338.713 357.72 343.948 352.339 348.011C347.355 351.776 341.725 354.009 335.577 354.946C331.05 355.639 326.534 355.638 322.043 354.663C320.449 354.325 318.883 353.868 317.357 353.296C317.145 353.215 316.934 353.156 316.718 353.094C316.477 353.105 316.31 352.922 316.096 352.845C315.916 352.79 315.78 352.634 315.573 352.655L311.839 350.821C311.742 350.645 311.539 350.635 311.39 350.539L310.601 350.152C307.469 348.484 304.705 346.304 301.973 344.072C297.354 340.292 293.022 336.178 288.476 332.305C284.819 329.15 280.954 326.246 276.906 323.611C274.078 321.83 271.121 320.262 268.061 318.92C265.631 317.827 263.068 317.027 260.5 316.309C255.425 314.902 250.264 313.912 245.098 312.92C239.631 311.88 234.171 310.827 228.841 309.211C226.675 308.55 224.531 307.844 222.497 306.823C222.082 306.608 221.636 306.467 221.217 306.25C220.691 305.953 220.117 305.788 219.645 305.405M413.14 144.035C419.454 148.138 422.909 154.072 424.185 161.376C425.057 166.383 424.714 171.353 423.588 176.291C422.6 180.519 421.058 184.598 419.001 188.422C415.286 195.426 410.134 201.567 403.882 206.441C399.571 209.878 394.693 212.536 389.468 214.295C384.774 215.841 379.971 216.56 375.027 216.051C371.555 215.69 368.268 214.747 365.232 213.02C359.964 210.047 356.419 205.63 354.401 199.971C352.677 195.139 352.341 190.149 352.896 185.088C353.297 181.565 354.115 178.102 355.332 174.771C356.148 172.485 357.127 170.262 358.264 168.118C360.943 163.064 364.321 158.521 368.373 154.489C372.618 150.188 377.585 146.665 383.049 144.083C387.693 141.92 392.55 140.544 397.689 140.292C401.439 140.081 405.193 140.62 408.732 141.876C408.865 141.868 408.964 141.951 409.072 141.993L409.393 142.15C409.559 142.209 409.686 142.361 409.879 142.322L412.08 143.403C412.164 143.584 412.364 143.587 412.509 143.68L412.833 143.84C412.937 143.891 413.061 143.924 413.14 144.035ZM219.783 147.46C220.893 145.464 222.25 143.634 223.759 141.918C226.695 138.585 230.12 135.919 234.253 134.227C238.738 132.324 243.731 131.982 248.433 133.254C252.35 134.305 255.73 136.334 258.666 139.109C262.05 142.293 264.544 146.115 266.34 150.378C269.13 156.982 270.071 163.886 269.569 171.006C269.209 176.546 267.81 181.969 265.445 186.992C264.01 190.101 262.16 193.002 259.946 195.614C256.962 199.102 253.457 201.886 249.187 203.651C244.438 205.682 239.121 205.954 234.19 204.418C230.461 203.28 227.252 201.234 224.46 198.53C220.707 194.89 218.096 190.519 216.307 185.638C214.591 180.916 213.705 175.932 213.69 170.908C213.624 165.975 214.344 161.063 215.823 156.356C216.093 155.521 216.381 154.694 216.654 153.865C216.748 153.469 216.963 153.122 217.046 152.726C217.079 152.557 217.17 152.428 217.241 152.273C217.304 152.074 217.49 151.914 217.463 151.671L218.867 148.812C219.176 148.639 219.228 148.306 219.383 148.036C219.503 147.837 219.56 147.585 219.783 147.46ZM289.415 124.81C292.224 119.148 295.541 114.435 299.858 110.443C303.114 107.425 306.75 104.991 310.925 103.409C315.424 101.689 320.035 101.144 324.781 102.149C329.529 103.148 333.527 105.493 336.879 108.969C339.831 112.042 341.957 115.633 343.47 119.595C345.883 125.907 346.611 132.46 346.13 139.171C345.828 143.433 345.013 147.6 343.714 151.669C342.98 153.972 342.099 156.232 341.075 158.432C339.786 161.204 338.246 163.852 336.473 166.342C332.749 171.543 328.237 175.876 322.52 178.855C319.019 180.729 315.145 181.8 311.18 181.989C306.773 182.19 302.404 181.087 298.62 178.82C295.121 176.76 292.35 173.922 290.136 170.534C287.244 166.119 285.542 161.242 284.674 156.058C283.693 149.952 283.844 143.718 285.121 137.667C285.798 134.333 286.78 131.068 288.053 127.913C288.45 126.854 288.905 125.818 289.415 124.81ZM443.405 261.423L443.082 262.082C440.147 267.43 436.154 271.855 431.386 275.603C427.666 278.535 423.515 280.875 419.08 282.539C413.355 284.68 407.455 285.65 401.339 284.963C397.699 284.596 394.171 283.492 390.971 281.718C386.311 279.175 382.721 275.04 380.859 270.068C379.247 265.851 378.96 261.501 379.598 257.079C380.181 253.141 381.445 249.333 383.333 245.828C387.457 238.047 393.477 232.093 401.033 227.649C403.579 226.145 406.273 224.906 409.073 223.952C414.829 221.999 420.701 221.211 426.762 222.101C430.179 222.576 433.47 223.713 436.452 225.449C440.947 228.036 444.387 232.123 446.168 236.994C447.851 241.498 448.039 246.13 447.214 250.829C446.763 253.423 446.01 255.936 444.924 258.341L444.599 259.004C444.179 259.799 443.778 260.605 443.405 261.423Z" fill="url(#paint8_linear_393_704)"/>
<defs>
<linearGradient id="paint0_linear_393_704" x1="147.537" y1="89" x2="116.537" y2="120" gradientUnits="userSpaceOnUse">
<stop offset="0.243506" stop-color="#FFAE4E"/>
<stop offset="0.859185" stop-color="#FF4C8C"/>
</linearGradient>
<linearGradient id="paint1_linear_393_704" x1="431.537" y1="425" x2="411.537" y2="445" gradientUnits="userSpaceOnUse">
<stop offset="0.243506" stop-color="#FFAE4E"/>
<stop offset="0.859185" stop-color="#FF4C8C"/>
</linearGradient>
<linearGradient id="paint2_linear_393_704" x1="439.92" y1="50.4954" x2="477.734" y2="50.4954" gradientUnits="userSpaceOnUse">
<stop stop-color="#FF8008"/>
<stop offset="1" stop-color="#FFC837"/>
</linearGradient>
<linearGradient id="paint3_linear_393_704" x1="529.817" y1="83.5915" x2="577.291" y2="36.1366" gradientUnits="userSpaceOnUse">
<stop stop-color="#FF8008"/>
<stop offset="1" stop-color="#FFC837"/>
</linearGradient>
<linearGradient id="paint4_linear_393_704" x1="587.956" y1="25.4102" x2="519.093" y2="94.2451" gradientUnits="userSpaceOnUse">
<stop offset="0.243506" stop-color="#FFAE4E"/>
<stop offset="0.859185" stop-color="#FF4C8C"/>
</linearGradient>
<linearGradient id="paint5_linear_393_704" x1="530.449" y1="164.655" x2="563.357" y2="164.655" gradientUnits="userSpaceOnUse">
<stop stop-color="#FF8008"/>
<stop offset="1" stop-color="#FFC837"/>
</linearGradient>
<linearGradient id="paint6_linear_393_704" x1="544.647" y1="214.523" x2="509.78" y2="316.521" gradientUnits="userSpaceOnUse">
<stop offset="0.243506" stop-color="#FFAE4E"/>
<stop offset="0.859185" stop-color="#FF4C8C"/>
</linearGradient>
<linearGradient id="paint7_linear_393_704" x1="520.45" y1="264.826" x2="533.135" y2="252.146" gradientUnits="userSpaceOnUse">
<stop stop-color="#FF8008"/>
<stop offset="1" stop-color="#FFC837"/>
</linearGradient>
<linearGradient id="paint8_linear_393_704" x1="484.022" y1="178.737" x2="167.698" y2="302.181" gradientUnits="userSpaceOnUse">
<stop offset="0.243506" stop-color="#FFAE4E"/>
<stop offset="0.859185" stop-color="#FF4C8C"/>
</linearGradient>
<clipPath id="clip0_393_704">
<rect width="36" height="36" fill="white" transform="translate(293.537 427)"/>
</clipPath>
<clipPath id="clip1_393_704">
<rect width="70.3259" height="70.3259" fill="white" transform="translate(108.266 313) rotate(45)"/>
</clipPath>
</defs>
</svg>
