<svg width="90" height="90" viewBox="0 0 90 90" fill="none" xmlns="http://www.w3.org/2000/svg">
<path d="M43.5938 14.0625V5.625C43.5938 5.25204 43.7419 4.89435 44.0056 4.63063C44.2694 4.36691 44.627 4.21875 45 4.21875C45.373 4.21875 45.7306 4.36691 45.9944 4.63063C46.2581 4.89435 46.4062 5.25204 46.4062 5.625V14.0625C46.4062 14.4355 46.2581 14.7931 45.9944 15.0569C45.7306 15.3206 45.373 15.4688 45 15.4688C44.627 15.4688 44.2694 15.3206 44.0056 15.0569C43.7419 14.7931 43.5938 14.4355 43.5938 14.0625ZM66.0938 45C66.0938 49.172 64.8566 53.2502 62.5388 56.7191C60.221 60.1879 56.9266 62.8915 53.0722 64.4881C49.2178 66.0846 44.9766 66.5023 40.8848 65.6884C36.793 64.8745 33.0345 62.8655 30.0845 59.9155C27.1345 56.9655 25.1255 53.207 24.3116 49.1152C23.4977 45.0234 23.9154 40.7822 25.5119 36.9278C27.1085 33.0734 29.8121 29.779 33.2809 27.4612C36.7498 25.1434 40.828 23.9062 45 23.9062C50.5924 23.9128 55.9539 26.1372 59.9083 30.0917C63.8628 34.0461 66.0872 39.4076 66.0938 45ZM63.2812 45C63.2812 41.3843 62.2091 37.8498 60.2003 34.8435C58.1915 31.8371 55.3364 29.494 51.9959 28.1103C48.6555 26.7267 44.9797 26.3646 41.4335 27.07C37.8873 27.7754 34.6299 29.5165 32.0732 32.0732C29.5165 34.6299 27.7754 37.8873 27.07 41.4335C26.3646 44.9797 26.7267 48.6555 28.1103 51.9959C29.494 55.3364 31.8371 58.1915 34.8435 60.2003C37.8498 62.2091 41.3843 63.2812 45 63.2812C49.8468 63.2757 54.4934 61.3478 57.9206 57.9206C61.3478 54.4934 63.2757 49.8468 63.2812 45ZM21.5051 23.4949C21.7689 23.7588 22.1268 23.907 22.5 23.907C22.8732 23.907 23.2311 23.7588 23.4949 23.4949C23.7588 23.2311 23.907 22.8732 23.907 22.5C23.907 22.1268 23.7588 21.7689 23.4949 21.5051L17.8699 15.8801C17.6061 15.6162 17.2482 15.468 16.875 15.468C16.5018 15.468 16.1439 15.6162 15.8801 15.8801C15.6162 16.1439 15.468 16.5018 15.468 16.875C15.468 17.2482 15.6162 17.6061 15.8801 17.8699L21.5051 23.4949ZM21.5051 66.5051L15.8801 72.1301C15.7494 72.2607 15.6458 72.4158 15.5751 72.5866C15.5044 72.7573 15.468 72.9402 15.468 73.125C15.468 73.3098 15.5044 73.4927 15.5751 73.6634C15.6458 73.8342 15.7494 73.9893 15.8801 74.1199C16.0107 74.2506 16.1658 74.3542 16.3366 74.4249C16.5073 74.4956 16.6902 74.532 16.875 74.532C17.0598 74.532 17.2427 74.4956 17.4134 74.4249C17.5842 74.3542 17.7393 74.2506 17.8699 74.1199L23.4949 68.4949C23.7588 68.2311 23.907 67.8732 23.907 67.5C23.907 67.1268 23.7588 66.7689 23.4949 66.5051C23.2311 66.2412 22.8732 66.093 22.5 66.093C22.1268 66.093 21.7689 66.2412 21.5051 66.5051ZM67.5 23.9062C67.6847 23.9064 67.8677 23.8701 68.0384 23.7996C68.2091 23.729 68.3642 23.6255 68.4949 23.4949L74.1199 17.8699C74.2506 17.7393 74.3542 17.5842 74.4249 17.4134C74.4956 17.2427 74.532 17.0598 74.532 16.875C74.532 16.6902 74.4956 16.5073 74.4249 16.3366C74.3542 16.1658 74.2506 16.0107 74.1199 15.8801C73.9893 15.7494 73.8342 15.6458 73.6634 15.5751C73.4927 15.5044 73.3098 15.468 73.125 15.468C72.9402 15.468 72.7573 15.5044 72.5866 15.5751C72.4158 15.6458 72.2607 15.7494 72.1301 15.8801L66.5051 21.5051C66.3082 21.7017 66.1741 21.9524 66.1197 22.2253C66.0654 22.4983 66.0932 22.7812 66.1998 23.0383C66.3063 23.2954 66.4867 23.5151 66.7182 23.6696C66.9496 23.8241 67.2217 23.9065 67.5 23.9062ZM68.4949 66.5051C68.2311 66.2412 67.8732 66.093 67.5 66.093C67.1268 66.093 66.7689 66.2412 66.5051 66.5051C66.2412 66.7689 66.093 67.1268 66.093 67.5C66.093 67.8732 66.2412 68.2311 66.5051 68.4949L72.1301 74.1199C72.2607 74.2506 72.4158 74.3542 72.5866 74.4249C72.7573 74.4956 72.9402 74.532 73.125 74.532C73.3098 74.532 73.4927 74.4956 73.6634 74.4249C73.8342 74.3542 73.9893 74.2506 74.1199 74.1199C74.2506 73.9893 74.3542 73.8342 74.4249 73.6634C74.4956 73.4927 74.532 73.3098 74.532 73.125C74.532 72.9402 74.4956 72.7573 74.4249 72.5866C74.3542 72.4158 74.2506 72.2607 74.1199 72.1301L68.4949 66.5051ZM14.0625 43.5938H5.625C5.25204 43.5938 4.89435 43.7419 4.63063 44.0056C4.36691 44.2694 4.21875 44.627 4.21875 45C4.21875 45.373 4.36691 45.7306 4.63063 45.9944C4.89435 46.2581 5.25204 46.4062 5.625 46.4062H14.0625C14.4355 46.4062 14.7931 46.2581 15.0569 45.9944C15.3206 45.7306 15.4688 45.373 15.4688 45C15.4688 44.627 15.3206 44.2694 15.0569 44.0056C14.7931 43.7419 14.4355 43.5938 14.0625 43.5938ZM45 74.5312C44.627 74.5312 44.2694 74.6794 44.0056 74.9431C43.7419 75.2069 43.5938 75.5645 43.5938 75.9375V84.375C43.5938 84.748 43.7419 85.1056 44.0056 85.3694C44.2694 85.6331 44.627 85.7812 45 85.7812C45.373 85.7812 45.7306 85.6331 45.9944 85.3694C46.2581 85.1056 46.4062 84.748 46.4062 84.375V75.9375C46.4062 75.5645 46.2581 75.2069 45.9944 74.9431C45.7306 74.6794 45.373 74.5312 45 74.5312ZM84.375 43.5938H75.9375C75.5645 43.5938 75.2069 43.7419 74.9431 44.0056C74.6794 44.2694 74.5312 44.627 74.5312 45C74.5312 45.373 74.6794 45.7306 74.9431 45.9944C75.2069 46.2581 75.5645 46.4062 75.9375 46.4062H84.375C84.748 46.4062 85.1056 46.2581 85.3694 45.9944C85.6331 45.7306 85.7812 45.373 85.7812 45C85.7812 44.627 85.6331 44.2694 85.3694 44.0056C85.1056 43.7419 84.748 43.5938 84.375 43.5938Z" fill="url(#paint0_linear_458_452)"/>
<defs>
<linearGradient id="paint0_linear_458_452" x1="85.7812" y1="4.21875" x2="4.21875" y2="85.7812" gradientUnits="userSpaceOnUse">
<stop offset="0.243506" stop-color="#FFAE4E"/>
<stop offset="0.859185" stop-color="#FF4C8C"/>
</linearGradient>
</defs>
</svg>
