<svg width="70" height="72" viewBox="0 0 70 72" fill="none" xmlns="http://www.w3.org/2000/svg">
<path fill-rule="evenodd" clip-rule="evenodd" d="M29.9401 71.257C29.6575 71.3121 29.3759 71.3714 29.0932 71.4206C27.5017 71.691 25.9412 71.5658 24.4325 70.9909C21.829 69.9952 19.8717 68.2682 18.6088 65.7751C18.1415 64.8411 17.8027 63.8481 17.6014 62.8233C17.3597 61.6238 17.2777 60.3976 17.3576 59.1766C17.4792 57.2181 17.9503 55.344 18.6975 53.533C19.2609 52.1736 19.9639 50.8764 20.7952 49.6623C21.5646 48.5174 22.2419 47.3133 22.8208 46.0612C23.5592 44.4867 24.1726 42.8631 24.7737 41.2325C25.3036 39.7919 25.8175 38.3466 26.4106 36.9332C26.846 35.8629 27.3577 34.8252 27.9419 33.8283C28.6845 32.5883 29.5717 31.47 30.7336 30.5859C31.597 29.9268 32.5754 29.434 33.6189 29.1325C34.8028 28.7814 36.0279 28.5883 37.2625 28.5582C39.1278 28.5176 40.9706 28.9725 42.6028 29.8763C43.7442 30.4981 44.7764 31.2729 45.7654 32.1063C46.8166 32.9908 47.8154 33.9321 48.8324 34.8537C49.9791 35.8909 51.148 36.9014 52.3951 37.8188C53.6361 38.7321 54.9555 39.5335 56.3381 40.2137C58.0104 41.0286 59.575 42.0482 60.9959 43.249C62.214 44.275 63.2848 45.4642 64.178 46.7828C64.8742 47.8102 65.4239 48.9296 65.8113 50.1087C66.3978 51.9129 66.5508 53.7478 66.1606 55.6163C65.7999 57.3474 65.0158 58.8724 63.8803 60.2177C63.0445 61.2088 62.0816 62.0499 60.9426 62.679C60.54 62.9039 60.121 63.0984 59.6893 63.2607C59.629 63.2828 59.5729 63.3096 59.5154 63.3368C59.4661 63.3838 59.3963 63.376 59.3363 63.3995C59.2877 63.4213 59.2296 63.4133 59.1896 63.4565L58.0521 63.7613C57.9983 63.7418 57.9534 63.7774 57.9038 63.7848L57.6634 63.8492C56.685 64.0775 55.6898 64.1277 54.6916 64.1611C53.0027 64.216 51.3128 64.1461 49.6223 64.1677C48.255 64.1766 46.89 64.2777 45.5363 64.4703C44.6017 64.6176 43.6793 64.8342 42.7769 65.1184C42.0554 65.3383 41.3602 65.6453 40.6788 65.9707C39.3351 66.6164 38.0506 67.367 36.7646 68.1179C35.4056 68.915 34.0455 69.7079 32.6084 70.3565C32.0236 70.6192 31.4351 70.8682 30.8112 71.0295C30.6827 71.061 30.5615 71.1141 30.4316 71.1459C30.2642 71.1805 30.1112 71.2524 29.9391 71.2588M41.1155 0.811149C43.2256 0.50931 45.0677 1.13038 46.7007 2.44945C47.8192 3.3542 48.6723 4.47732 49.3521 5.73963C49.9295 6.82489 50.3608 7.98176 50.6348 9.18014C51.148 11.3651 51.1939 13.6338 50.7695 15.8378C50.491 17.3735 49.9465 18.8489 49.1607 20.1974C48.4481 21.4014 47.5584 22.4496 46.4098 23.2624C45.6024 23.8322 44.7261 24.2436 43.7572 24.4414C42.0805 24.7891 40.5019 24.5083 39.0175 23.678C37.7498 22.9693 36.7483 21.9684 35.9235 20.7861C35.3527 19.9604 34.8818 19.0698 34.5206 18.1332C34.2685 17.4941 34.0631 16.8376 33.9059 16.1687C33.5351 14.5925 33.4088 12.9948 33.5211 11.3804C33.6245 9.67265 34.0271 7.99635 34.7105 6.42788C35.2974 5.10148 36.0763 3.9033 37.1246 2.89206C37.8847 2.14858 38.7852 1.56392 39.7736 1.17217C39.8004 1.14584 39.837 1.14488 39.8678 1.13367L39.9654 1.10753C40.012 1.08915 40.0673 1.09788 40.1011 1.0535L40.7715 0.873861C40.8233 0.896795 40.8665 0.860188 40.9147 0.853167L41.0136 0.826663C41.0452 0.818197 41.0777 0.802124 41.1155 0.811149ZM0.540233 37.5674C0.404708 36.9353 0.353182 36.2924 0.355064 35.6454C0.359789 34.3882 0.593068 33.1816 1.15882 32.0508C1.76014 30.8098 2.7606 29.8064 3.99994 29.2016C5.03057 28.6957 6.12919 28.4985 7.27189 28.5428C8.58647 28.5911 9.83023 28.941 11.0074 29.515C12.8325 30.4027 14.3196 31.699 15.539 33.31C16.4944 34.558 17.2066 35.9746 17.6385 37.4858C17.912 38.4159 18.0581 39.3788 18.0727 40.3482C18.0867 41.6476 17.8582 42.8941 17.2769 44.0659C16.6432 45.3835 15.5606 46.4322 14.2234 47.0235C13.2167 47.4759 12.1513 47.6376 11.0525 47.5816C9.5743 47.505 8.20336 47.0596 6.91254 46.3527C5.66697 45.6659 4.54975 44.7687 3.61042 43.7006C2.67717 42.6615 1.91534 41.4804 1.35356 40.2017C1.25553 39.9732 1.16299 39.7432 1.06671 39.5158C1.0129 39.4139 0.994069 39.2997 0.93788 39.1999C0.913368 39.1578 0.908826 39.1134 0.894936 39.0671C0.871601 39.0129 0.881138 38.9441 0.830326 38.8974L0.596943 38.0264C0.630545 37.932 0.57951 37.8514 0.562182 37.7648C0.550744 37.7001 0.515853 37.6358 0.540233 37.5674ZM11.1618 19.7657C10.7056 18.0356 10.5344 16.4132 10.7108 14.758C10.8426 13.5079 11.1641 12.3116 11.7591 11.1965C12.3977 9.99174 13.279 9.01643 14.4777 8.34628C15.676 7.67476 16.9649 7.42952 18.3272 7.54598C19.5289 7.651 20.6512 8.02025 21.7119 8.5827C23.4023 9.47852 24.7783 10.7398 25.9261 12.2596C26.6558 13.2243 27.2585 14.2644 27.7398 15.3737C28.0125 16.0015 28.2459 16.6473 28.4375 17.3071C28.6792 18.138 28.8443 18.9894 28.9305 19.8505C29.1057 21.6529 28.9511 23.4171 28.2877 25.1174C27.8908 26.169 27.2645 27.1189 26.4545 27.8982C25.5525 28.762 24.4161 29.341 23.1871 29.563C22.0573 29.7759 20.938 29.6871 19.8347 29.3775C18.3958 28.9753 17.1244 28.2529 15.9735 27.3097C14.6266 26.1911 13.4973 24.8341 12.6421 23.3064C12.1652 22.4696 11.7661 21.5907 11.4497 20.681C11.3371 20.3814 11.2409 20.0759 11.1618 19.7657ZM69.4381 20.193L69.4918 20.3936C69.8628 22.0803 69.8363 23.7674 69.5183 25.4546C69.2717 26.7728 68.8228 28.0449 68.1876 29.2258C67.3662 30.749 66.2894 32.055 64.8578 33.0482C64.0135 33.6482 63.0559 34.0702 62.0434 34.2882C60.5762 34.6146 59.0406 34.402 57.7173 33.6893C56.5881 33.0907 55.7164 32.217 55.0286 31.1556C54.4189 30.2075 53.979 29.1605 53.7283 28.0615C53.1575 25.6347 53.3312 23.244 54.1137 20.8889C54.3763 20.0939 54.7197 19.3279 55.1386 18.603C56.0016 17.1143 57.1064 15.8523 58.5641 14.9125C59.381 14.3771 60.2944 14.0063 61.2533 13.8208C62.6934 13.5345 64.1883 13.7648 65.4754 14.4712C66.6734 15.1176 67.5764 16.0698 68.2762 17.2252C68.6633 17.8621 68.971 18.5379 69.1876 19.2529L69.2418 19.4549C69.3004 19.7027 69.3649 19.9491 69.4381 20.193Z" fill="url(#paint0_linear_458_430)"/>
<defs>
<linearGradient id="paint0_linear_458_430" x1="2.43971" y1="44.9037" x2="71.1291" y2="26.4984" gradientUnits="userSpaceOnUse">
<stop stop-color="#FF8008"/>
<stop offset="1" stop-color="#FFC837"/>
</linearGradient>
</defs>
</svg>
