<svg width="157" height="145" viewBox="0 0 157 145" fill="none" xmlns="http://www.w3.org/2000/svg">
<ellipse cx="78.6948" cy="17.0527" rx="78.6948" ry="17.0527" transform="matrix(0.792105 0.610385 -0.53967 0.841876 31.3652 0)" fill="white"/>
<path d="M146.436 110.119C145.891 110.969 144.961 111.552 143.608 111.831C142.252 112.111 140.509 112.076 138.41 111.724C134.215 111.021 128.703 109.071 122.247 106.031C109.341 99.9554 92.7577 89.5749 75.564 76.3257C58.3703 63.0764 43.8452 49.4852 34.26 38.2298C29.4647 32.5988 25.924 27.5736 23.8996 23.4836C22.887 21.4379 22.2668 19.652 22.0474 18.1583C21.8284 16.6679 22.0135 15.5116 22.5585 14.6614C23.1035 13.8112 24.0331 13.2287 25.3862 12.9497C26.7423 12.6702 28.485 12.705 30.5836 13.0567C34.7791 13.7598 40.2908 15.7102 46.7473 18.7497C59.653 24.8254 76.2363 35.2058 93.43 48.4551C110.624 61.7043 125.149 75.2955 134.734 86.551C139.529 92.1819 143.07 97.2071 145.094 101.297C146.107 103.343 146.727 105.129 146.947 106.622C147.166 108.113 146.981 109.269 146.436 110.119Z" stroke="black" stroke-opacity="0.8"/>
<path d="M139.957 120.229C139.412 121.079 138.482 121.661 137.129 121.94C135.773 122.22 134.03 122.185 131.932 121.833C127.736 121.13 122.225 119.18 115.768 116.14C102.863 110.065 86.2792 99.6843 69.0855 86.435C51.8918 73.1858 37.3667 59.5946 27.7815 48.3391C22.9861 42.7082 19.4455 37.683 17.421 33.593C16.4084 31.5473 15.7882 29.7614 15.5688 28.2677C15.3499 26.7773 15.5349 25.621 16.0799 24.7708C16.625 23.9206 17.5545 23.3381 18.9077 23.0591C20.2638 22.7795 22.0065 22.8144 24.105 23.1661C28.3006 23.8692 33.8123 25.8196 40.2688 28.8591C53.1745 34.9347 69.7577 45.3152 86.9515 58.5644C104.145 71.8137 118.67 85.4049 128.255 96.6603C133.051 102.291 136.591 107.316 138.616 111.406C139.629 113.452 140.249 115.238 140.468 116.732C140.687 118.222 140.502 119.378 139.957 120.229Z" stroke="black" stroke-opacity="0.8"/>
<path d="M133.477 130.338C132.932 131.188 132.002 131.771 130.649 132.05C129.293 132.329 127.55 132.294 125.451 131.943C121.256 131.24 115.744 129.289 109.288 126.25C96.382 120.174 79.7988 109.794 62.605 96.5444C45.4113 83.2952 30.8862 69.704 21.301 58.4485C16.5057 52.8175 12.965 47.7924 10.9406 43.7024C9.92798 41.6567 9.30778 39.8707 9.08837 38.377C8.86944 36.8867 9.05447 35.7304 9.59948 34.8802C10.1445 34.03 11.0741 33.4475 12.4272 33.1685C13.7834 32.8889 15.526 32.9238 17.6246 33.2754C21.8202 33.9785 27.3318 35.9289 33.7883 38.9685C46.694 45.0441 63.2773 55.4246 80.471 68.6738C97.6647 81.923 112.19 95.5142 121.775 106.77C126.57 112.401 130.111 117.426 132.135 121.516C133.148 123.562 133.768 125.347 133.988 126.841C134.207 128.332 134.022 129.488 133.477 130.338Z" stroke="black" stroke-opacity="0.8"/>
</svg>
