<svg width="195" height="205" viewBox="0 0 195 205" fill="none" xmlns="http://www.w3.org/2000/svg">
<path d="M109.052 65.0515L109.22 65.9583L109.889 65.3229L155.77 21.7063L128.541 78.9019L128.146 79.7329L129.058 79.6126L191.77 71.3435L136.183 101.583L135.375 102.022L136.183 102.462L191.77 132.701L129.058 124.432L128.146 124.312L128.541 125.143L155.77 182.338L109.889 138.722L109.22 138.086L109.052 138.993L97.5242 201.297L85.9959 138.993L85.8281 138.086L85.1597 138.722L39.2787 182.338L66.507 125.143L66.9025 124.312L65.9902 124.432L3.27833 132.701L58.8657 102.462L59.6731 102.022L58.8657 101.583L3.27835 71.3435L65.9902 79.6126L66.9025 79.7329L66.507 78.9019L39.2787 21.7063L85.1597 65.3229L85.8281 65.9583L85.9959 65.0515L97.5242 2.74806L109.052 65.0515Z" fill="#F3F3F3" stroke="black"/>
</svg>
