<svg width="99" height="99" viewBox="0 0 99 99" fill="none" xmlns="http://www.w3.org/2000/svg">
<path d="M66.3054 81.5974C84.2055 72.1937 91.1289 50.1159 81.7692 32.2852C72.4095 14.4545 50.311 7.62311 32.411 17.0268C14.5109 26.4305 7.58754 48.5083 16.9472 66.339C26.3069 84.1697 48.4054 91.0011 66.3054 81.5974Z" fill="url(#paint0_linear_393_636)"/>
<path d="M64.7686 34.3709C64.6239 34.2434 64.4478 34.1586 64.2593 34.1257C64.0708 34.0928 63.8771 34.113 63.699 34.1842L33.2989 46.3221C32.9291 46.4697 32.6163 46.7357 32.4074 47.0802C32.1984 47.4247 32.1047 47.829 32.1402 48.2325C32.1757 48.636 32.3385 49.0168 32.6043 49.3178C32.87 49.6188 33.2243 49.8237 33.6139 49.9018L41.7322 51.5286V60.7403C41.7324 61.1674 41.8576 61.5846 42.0919 61.9386C42.3261 62.2925 42.6587 62.5669 43.0469 62.7266C43.4351 62.8863 43.8612 62.924 44.2706 62.8349C44.6799 62.7458 45.0539 62.5339 45.3443 62.2264L49.3405 57.9978L55.5777 63.5762C55.9585 63.92 56.4493 64.1099 56.9578 64.1103C57.1798 64.1098 57.4005 64.0742 57.6118 64.0047C57.9583 63.8929 58.27 63.6903 58.5158 63.4172C58.7617 63.1441 58.933 62.81 59.0129 62.4483L65.1061 35.4223C65.1489 35.2323 65.1401 35.034 65.0807 34.8487C65.0212 34.6635 64.9133 34.4983 64.7686 34.3709ZM33.9394 48.0943C33.9337 48.0785 33.9337 48.0612 33.9394 48.0454C33.9462 48.04 33.9538 48.0359 33.9619 48.0331L57.9193 38.4648L42.4237 49.7901L33.9619 48.1005L33.9394 48.0943ZM44.0483 60.95C44.007 60.9938 43.9538 61.024 43.8955 61.0368C43.8373 61.0496 43.7766 61.0445 43.7213 61.022C43.6659 60.9995 43.6184 60.9607 43.5847 60.9105C43.5511 60.8604 43.5328 60.8011 43.5323 60.7403V52.7989L47.9859 56.778L44.0483 60.95ZM57.2593 62.0335C57.2482 62.0853 57.2237 62.1331 57.1884 62.1718C57.153 62.2106 57.1081 62.239 57.0583 62.2539C57.0075 62.2721 56.9528 62.276 56.9001 62.2653C56.8473 62.2545 56.7983 62.2294 56.7583 62.1927L44.0783 50.8445L62.883 37.0951L57.2593 62.0335Z" fill="white"/>
<defs>
<linearGradient id="paint0_linear_393_636" x1="64.8219" y1="-8.78849e-05" x2="34.2953" y2="98.7482" gradientUnits="userSpaceOnUse">
<stop offset="0.243506" stop-color="#FFAE4E"/>
<stop offset="0.859185" stop-color="#FF4C8C"/>
</linearGradient>
</defs>
</svg>
